<svg xmlns="http://www.w3.org/2000/svg" xmlns:xlink="http://www.w3.org/1999/xlink" width="1080" zoomAndPan="magnify" viewBox="0 0 810 809.999993" height="1080" preserveAspectRatio="xMidYMid meet" version="1.0"><defs><g/></defs><g fill="#ffffff" fill-opacity="1"><g transform="translate(25.521068, 514.09309)"><g><path d="M 110.390625 -218.890625 C 120.179688 -218.890625 129.085938 -216.492188 137.109375 -211.703125 C 145.140625 -206.910156 151.550781 -200.5 156.34375 -192.46875 C 161.144531 -184.445312 163.546875 -175.535156 163.546875 -165.734375 L 163.546875 -53.15625 C 163.546875 -43.363281 161.144531 -34.453125 156.34375 -26.421875 C 151.550781 -18.398438 145.140625 -11.988281 137.109375 -7.1875 C 129.085938 -2.394531 120.179688 0 110.390625 0 L 10.9375 0 L 10.9375 -218.890625 Z M 64.109375 -53.15625 L 110.390625 -53.15625 L 110.390625 -165.734375 L 64.109375 -165.734375 Z M 64.109375 -53.15625 "/></g></g></g><g fill="#ffffff" fill-opacity="1"><g transform="translate(197.504714, 514.09309)"><g><path d="M 95.375 -166.046875 L 148.53125 -166.046875 L 148.53125 -53.15625 C 148.53125 -43.570312 146.132812 -34.765625 141.34375 -26.734375 C 136.550781 -18.710938 130.140625 -12.300781 122.109375 -7.5 C 114.085938 -2.707031 105.175781 -0.3125 95.375 -0.3125 L 68.796875 -0.3125 C 58.992188 -0.3125 50.078125 -2.707031 42.046875 -7.5 C 34.023438 -12.300781 27.617188 -18.710938 22.828125 -26.734375 C 18.035156 -34.765625 15.640625 -43.570312 15.640625 -53.15625 L 15.640625 -166.046875 L 68.796875 -166.046875 L 68.796875 -53.15625 L 95.375 -53.15625 Z M 95.375 -166.046875 "/></g></g></g><g fill="#ffffff" fill-opacity="1"><g transform="translate(361.67091, 514.09309)"><g><path d="M 5.3125 -136.96875 L 126.328125 -136.65625 L 126.328125 -83.484375 L 5.3125 -83.796875 Z M 5.3125 -136.96875 "/></g></g></g><g fill="#ffffff" fill-opacity="1"><g transform="translate(493.316566, 514.09309)"><g><path d="M 43.78125 -166.046875 L 62.234375 -166.046875 L 62.234375 -0.3125 L 9.0625 -0.3125 L 9.0625 -131.328125 C 9.0625 -137.585938 10.625 -143.375 13.75 -148.6875 C 16.882812 -154.007812 21.109375 -158.234375 26.421875 -161.359375 C 31.734375 -164.484375 37.519531 -166.046875 43.78125 -166.046875 Z M 43.78125 -166.046875 "/></g></g></g><g fill="#ffffff" fill-opacity="1"><g transform="translate(564.611595, 514.09309)"><g><path d="M 142.28125 -166.046875 L 142.28125 -113.203125 L 101.3125 -113.203125 L 101.3125 -0.3125 L 48.15625 -0.3125 L 48.15625 -113.203125 L 8.4375 -113.203125 L 8.4375 -166.046875 L 48.15625 -166.046875 L 48.15625 -219.203125 L 70.359375 -219.203125 C 78.898438 -219.203125 86.191406 -216.175781 92.234375 -210.125 C 98.285156 -204.082031 101.3125 -196.789062 101.3125 -188.25 L 101.3125 -166.046875 Z M 142.28125 -166.046875 "/></g></g></g><g fill="#ffffff" fill-opacity="1"><g transform="translate(711.892102, 514.09309)"><g><path d="M 36.90625 -47.21875 C 43.988281 -47.21875 50.082031 -44.660156 55.1875 -39.546875 C 60.300781 -34.441406 62.859375 -28.347656 62.859375 -21.265625 L 62.859375 -20.015625 C 62.859375 -12.921875 60.300781 -6.820312 55.1875 -1.71875 C 50.082031 3.382812 43.988281 5.9375 36.90625 5.9375 L 35.640625 5.9375 C 28.554688 5.9375 22.457031 3.382812 17.34375 -1.71875 C 12.238281 -6.820312 9.6875 -12.921875 9.6875 -20.015625 C 9.6875 -27.515625 12.34375 -33.921875 17.65625 -39.234375 C 22.976562 -44.554688 29.394531 -47.21875 36.90625 -47.21875 Z M 39.40625 -212.953125 L 62.859375 -212.953125 L 62.859375 -98.8125 C 62.859375 -90.894531 60.039062 -84.171875 54.40625 -78.640625 C 48.78125 -73.117188 42.003906 -70.359375 34.078125 -70.359375 L 9.6875 -70.359375 L 9.6875 -183.25 C 9.6875 -191.375 12.601562 -198.351562 18.4375 -204.1875 C 24.28125 -210.03125 31.269531 -212.953125 39.40625 -212.953125 Z M 39.40625 -212.953125 "/></g></g></g><g fill="#0a8f69" fill-opacity="1"><g transform="translate(528.653425, 325.705887)"><g><path d="M 31.578125 -47.21875 C 38.671875 -47.21875 44.769531 -44.660156 49.875 -39.546875 C 54.976562 -34.441406 57.53125 -28.347656 57.53125 -21.265625 L 57.53125 -20.015625 C 57.53125 -12.921875 54.976562 -6.820312 49.875 -1.71875 C 44.769531 3.382812 38.671875 5.9375 31.578125 5.9375 L 30.328125 5.9375 C 23.242188 5.9375 17.144531 3.382812 12.03125 -1.71875 C 6.925781 -6.820312 4.375 -12.921875 4.375 -20.015625 C 4.375 -27.515625 7.03125 -33.921875 12.34375 -39.234375 C 17.664062 -44.554688 24.078125 -47.21875 31.578125 -47.21875 Z M 31.578125 -47.21875 "/></g></g></g></svg>