<svg width="1000" height="340" viewBox="0 0 1000 340" fill="none" xmlns="http://www.w3.org/2000/svg">
<path d="M190.274 43.4189C202.182 43.4189 213.017 46.3366 222.777 52.1624C232.547 57.993 240.345 65.7908 246.175 75.5607C252.015 85.3211 254.938 96.1601 254.938 108.083V245.032C254.938 256.945 252.015 267.784 246.175 277.554C240.345 287.314 232.547 295.112 222.777 300.952C213.017 306.783 202.182 309.695 190.274 309.695H83.889C75.8269 309.695 69.2913 303.16 69.2913 295.098V58.0167C69.2913 49.9546 75.8269 43.4189 83.889 43.4189H190.274ZM133.974 241.382C133.974 243.398 135.608 245.032 137.623 245.032H172.027C182.105 245.032 190.274 236.862 190.274 226.785V126.33C190.274 116.252 182.105 108.083 172.027 108.083H137.623C135.608 108.083 133.974 109.716 133.974 111.732V241.382Z" fill="#212121"/>
<path d="M381.224 118.648C381.224 112.601 386.125 107.699 392.172 107.699H434.939C440.986 107.699 445.887 112.601 445.887 118.648V245.029C445.887 256.69 442.97 267.4 437.144 277.17C431.313 286.931 423.515 294.729 413.746 300.569C403.985 306.399 393.146 309.312 381.224 309.312H348.892C336.965 309.312 326.121 306.399 316.351 300.569C306.591 294.729 298.798 286.931 292.972 277.17C287.141 267.4 284.228 256.69 284.228 245.029V118.648C284.228 112.601 289.13 107.699 295.177 107.699H337.944C343.99 107.699 348.892 112.601 348.892 118.648V245.029H381.224V118.648Z" fill="#212121"/>
<path d="M475.018 154.073C475.018 148.01 479.947 143.101 486.01 143.125L559.273 143.418C565.303 143.442 570.178 148.336 570.178 154.366V197.152C570.178 203.215 565.249 208.124 559.186 208.1L485.923 207.807C479.893 207.783 475.018 202.889 475.018 196.859V154.073Z" fill="#212121"/>
<path d="M641.607 107.699H656.756C660.787 107.699 664.055 110.967 664.055 114.998V302.013C664.055 306.044 660.787 309.312 656.756 309.312H606.671C602.64 309.312 599.373 306.044 599.373 302.013V149.934C599.373 142.321 601.273 135.279 605.075 128.817C608.886 122.345 614.027 117.203 620.49 113.401C626.952 109.6 633.99 107.699 641.607 107.699Z" fill="#212121"/>
<path d="M837.214 107.699C843.26 107.699 848.162 112.601 848.162 118.647V161.034C848.162 167.081 843.26 171.982 837.214 171.982H798.324V298.363C798.324 304.41 793.423 309.312 787.376 309.312H744.609C738.562 309.312 733.661 304.41 733.661 298.363V171.982H696.292C690.245 171.982 685.344 167.081 685.344 161.034V118.647C685.344 112.601 690.245 107.699 696.292 107.699H733.661V53.9835C733.661 47.9369 738.562 43.0352 744.609 43.0352H760.67C771.058 43.0352 779.93 46.7179 787.281 54.0785C794.642 61.4297 798.324 70.3015 798.324 80.6891V107.699H837.214Z" fill="#212121"/>
<path d="M899.137 252.254C907.753 252.254 915.166 255.367 921.376 261.587C927.597 267.798 930.709 275.211 930.709 283.826V285.347C930.709 293.976 927.597 301.398 921.376 307.604C915.166 313.81 907.753 316.918 899.137 316.918H897.598C888.978 316.918 881.56 313.81 875.34 307.604C869.129 301.398 866.026 293.976 866.026 285.347C866.026 276.223 869.258 268.43 875.72 261.967C882.192 255.495 890 252.254 899.137 252.254ZM902.179 50.6416H919.761C925.807 50.6416 930.709 55.5433 930.709 61.5899V189.492C930.709 199.124 927.278 207.302 920.426 214.03C913.583 220.75 905.339 224.104 895.697 224.104H876.975C870.928 224.104 866.026 219.203 866.026 213.156V86.7749C866.026 76.891 869.571 68.4041 876.671 61.3048C883.779 54.196 892.281 50.6416 902.179 50.6416Z" fill="#212121"/>
<path d="M669.75 23.082C678.379 23.082 685.797 26.1945 692.008 32.4147C698.214 38.6254 701.322 46.0384 701.322 54.6535V56.1741C701.322 64.8036 698.214 72.226 692.008 78.432C685.797 84.6379 678.379 87.7457 669.75 87.7457H668.229C659.61 87.7457 652.192 84.6379 645.972 78.432C639.761 72.226 636.658 64.8036 636.658 56.1741C636.658 47.0505 639.889 39.2574 646.352 32.7949C652.824 26.3228 660.626 23.082 669.75 23.082Z" fill="#1CABA2"/>
</svg>
